<?xml version="1.0" encoding="utf-8"?>
<!-- Generator: Adobe Illustrator 24.1.1, SVG Export Plug-In . SVG Version: 6.00 Build 0)  -->
<svg version="1.1" id="Capa_1" xmlns="http://www.w3.org/2000/svg" xmlns:xlink="http://www.w3.org/1999/xlink" x="0px" y="0px"
	 viewBox="0 0 11.34 11.34" style="enable-background:new 0 0 11.34 11.34;" xml:space="preserve">
<g>
	<path d="M5.66,0.29c-2.97,0-5.37,2.41-5.37,5.37c0,2.97,2.41,5.38,5.37,5.38s5.37-2.41,5.37-5.38C11.04,2.7,8.63,0.29,5.66,0.29z
		 M7,5.65c-0.29,0-0.58,0-0.88,0c0,0.97,0,1.92,0,2.88c-0.44,0-0.86,0-1.3,0c0-0.96,0-1.91,0-2.87c-0.21,0-0.42,0-0.63,0
		c0-0.32,0-0.64,0-0.96C4.22,4.69,4.26,4.68,4.3,4.68c0.13,0,0.27,0,0.4,0c0.11,0,0.12-0.01,0.12-0.12c0-0.22,0-0.44,0-0.67
		c0-0.26,0.05-0.51,0.22-0.71C5.24,2.94,5.51,2.82,5.82,2.8c0.41-0.02,0.81-0.02,1.22-0.03c0.02,0,0.04,0,0.07,0.01
		c0,0.33,0,0.66,0,1c-0.06,0-0.12,0-0.19,0c-0.17,0-0.35-0.01-0.52,0.01C6.22,3.8,6.13,3.9,6.12,4.08c-0.01,0.18,0,0.36,0,0.54
		c0,0.06,0.03,0.06,0.07,0.06c0.28,0,0.55,0,0.83,0c0.03,0,0.05,0,0.1,0C7.08,5,7.04,5.32,7,5.65z"/>
</g>
</svg>
